<svg version="1.1" xmlns="http://www.w3.org/2000/svg" xmlns:xlink="http://www.w3.org/1999/xlink" x="0px" y="0px" width="37px"
height="37px" viewBox="0 0 37 37" style="enable-background:new 0 0 37 37;" xml:space="preserve">
<style type="text/css">
.st0{fill:#383E49;stroke:#FFFFFF;stroke-miterlimit:10;}
.st1{fill-rule:evenodd;clip-rule:evenodd;fill:#E3E4E5;}
</style>
<defs>
</defs>
<path class="st0" d="M33.5,36.5h-30c-1.6,0-3-1.3-3-3v-30c0-1.6,1.4-3,3-3h30c1.7,0,3,1.4,3,3v30C36.5,35.2,35.2,36.5,33.5,36.5z"/>
<path class="st1" d="M17.5,22.1l-0.3-0.5c-0.1-0.1-0.2-0.2-0.3-0.2c0,0-0.1,0-0.1,0l-0.6,0.2c-0.2,0.1-0.4,0.1-0.6,0.1
c-0.4,0-0.8-0.1-1.1-0.3L13,25.5c-0.1,0.2,0.1,0.4,0.3,0.4c0,0,0,0,0.1,0l1.9-0.4c0,0,0,0,0.1,0c0.1,0,0.2,0,0.2,0.1l1.2,1.5
c0.1,0.1,0.1,0.1,0.2,0.1c0.1,0,0.2-0.1,0.3-0.2l1.5-4.2C18.3,22.7,17.8,22.5,17.5,22.1z M25.1,15.9c-0.3-0.4-0.3-0.9,0-1.3l0.3-0.5
c0.5-0.6,0.2-1.5-0.6-1.7l-0.6-0.2c-0.5-0.1-0.8-0.6-0.8-1.1l0-0.6c0-0.6-0.5-1.1-1.1-1.1c-0.1,0-0.2,0-0.4,0.1l-0.6,0.2
c-0.1,0-0.2,0.1-0.3,0.1c-0.4,0-0.7-0.2-0.9-0.5l-0.3-0.5c-0.2-0.3-0.6-0.5-0.9-0.5c-0.3,0-0.7,0.2-0.9,0.5l-0.3,0.5
c-0.2,0.3-0.6,0.5-0.9,0.5c-0.1,0-0.2,0-0.3-0.1L16,9.4c-0.1,0-0.2-0.1-0.4-0.1c-0.6,0-1.1,0.5-1.1,1.1l0,0.6c0,0.5-0.3,0.9-0.8,1.1
l-0.6,0.2c-0.7,0.2-1,1.1-0.6,1.7l0.3,0.5c0.3,0.4,0.3,0.9,0,1.3l-0.3,0.5c-0.5,0.6-0.2,1.5,0.6,1.7l0.6,0.2
c0.5,0.1,0.8,0.6,0.8,1.1l0,0.6c0,0.3,0.1,0.6,0.3,0.8c0.2,0.2,0.5,0.4,0.8,0.4c0.1,0,0.2,0,0.4-0.1l0.6-0.2c0.1,0,0.2-0.1,0.3-0.1
c0.4,0,0.7,0.2,0.9,0.5l0.3,0.5c0.2,0.3,0.5,0.4,0.8,0.5c0,0,0,0,0.1,0c0.3,0,0.7-0.2,0.9-0.5l0.3-0.5c0.2-0.3,0.6-0.5,0.9-0.5
c0.1,0,0.2,0,0.3,0.1l0.6,0.2c0.1,0,0.2,0.1,0.4,0.1c0.6,0,1.1-0.5,1.1-1.1l0-0.6c0-0.5,0.3-0.9,0.8-1.1l0.6-0.2
c0.7-0.2,1-1.1,0.6-1.7L25.1,15.9z M19,18.3c-1.7,0-3-1.3-3-3c0-1.7,1.3-3,3-3s3,1.3,3,3C22,17,20.7,18.3,19,18.3z M23.5,21.4
c-0.3,0.2-0.7,0.3-1.1,0.3c-0.2,0-0.4,0-0.6-0.1l-0.6-0.2c-0.1,0-0.2,0-0.3,0c-0.1,0-0.2,0.1-0.2,0.2l-0.3,0.5
c-0.3,0.4-0.6,0.6-1.1,0.7l-0.1,0.1l1.5,4c0.1,0.2,0.4,0.3,0.5,0.1l1.2-1.5c0.1-0.1,0.2-0.1,0.3-0.1l1.8,0.4
c0.2,0.1,0.4-0.2,0.4-0.4L23.5,21.4z"/>
</svg>